# xmcd
#
# Track frame offsets: 
#        150
#        23899
#        55844
#        84184
#        109052
#        138236
#        158690
#        214185
#        240765
#        260822
#        304600
#
# Disc length: 4369 seconds
#
# Revision: 0
# Processed by: cddbd v1.5.2PL0 Copyright (c) Steve Scherf et al.
# Submitted via: ExactAudioCopy v1.0b6
#
DISCID=84110f0b
DTITLE=Art Farmer - Complete Albums Collection 1961-1963 (2016)
DYEAR=2016
DGENRE=Jazz Trumpet
TTITLE0=Space Station
TTITLE1=Domino 
TTITLE2=Another Git Together 
TTITLE3=Along Came Betty 
TTITLE4=This Nearly Was Mine
TTITLE5=Reggie 
TTITLE6=Stompin' At The Savoy
TTITLE7=Swing Spring
TTITLE8=What's New? 
TTITLE9=I Want To Be Happy
TTITLE10=I'm Gettin' Sentimental Over You
EXTD=
EXTT0=
EXTT1=
EXTT2=
EXTT3=
EXTT4=
EXTT5=
EXTT6=
EXTT7=
EXTT8=
EXTT9=
EXTT10=
PLAYORDER=
